# xmcd
#
# Track frame offsets: 
#        150
#        13367
#        42591
#        57373
#        77029
#        102248
#        117258
#        131743
#        142981
#        171491
#        187302
#        201513
#        212955
#        223950
#        235236
#        246763
#        257896
#        273265
#        292215
#        311621
#        322721
#        332067
#        336392
#        342829
#
# Disc length: 4720 seconds
#
# Revision: 2
# Processed by: cddbd v1.5.2PL0 Copyright (c) Steve Scherf et al.
# Submitted via: ExactAudioCopy v0.99pb5
#
DISCID=91126e18
DTITLE=Various Artist - XXXL Prodvinuty 11
DYEAR=2004
DGENRE=Dance
TTITLE0=Tarkan - DuDu (Neo Master Dance Mix)
TTITLE1=Benny Benassi - Satisfaction (Isak Original)
TTITLE2=Royal Gigolos - California Dreamin (Tek - House Single)
TTITLE3=Klubbheads - Klubbslang
TTITLE4=DJ Maximus - Everybody Needs Somebody
TTITLE5=Chocolate Puma - I Wanna Bell
TTITLE6=Lambda - Live Together
TTITLE7=Supreme Dream Team - Attack Da Dance Floor
TTITLE8=Kamasutra - Rock'n Beat
TTITLE9=4 Clubbers - Children
TTITLE10=Karma - Every Time You Leave
TTITLE11=Clubbaholics - Rhytm And Sound
TTITLE12=Wicked Plastic - God Is A Zilla
TTITLE13=DJ Kicken vs. MC-Q - Ain't No Party
TTITLE14=Bassmen - Sending SOS (Bassmen Remix)
TTITLE15=Klubbers Revenge - Mental Atmosphere 2004
TTITLE16=Marcarida - Thea Folli
TTITLE17=JD Serge and DJ Remy Martynez - Da Beat
TTITLE18=Miss Jones - Do You Feel Allright
TTITLE19=Frederik - La Dolce Vita
TTITLE20=Simon-F feat. Misteresse - Sunset Blvd
TTITLE21=Noir Disque - Noir Disque
TTITLE22=Robo Sapiens - Like A Man
TTITLE23=Taiko - Kodakchrome (Club Cut)
EXTD=
EXTT0=
EXTT1=
EXTT2=
EXTT3=
EXTT4=
EXTT5=
EXTT6=
EXTT7=
EXTT8=
EXTT9=
EXTT10=
EXTT11=
EXTT12=
EXTT13=
EXTT14=
EXTT15=
EXTT16=
EXTT17=
EXTT18=
EXTT19=
EXTT20=
EXTT21=
EXTT22=
EXTT23=
PLAYORDER=
